<svg version="1.1" xmlns="http://www.w3.org/2000/svg" xmlns:xlink="http://www.w3.org/1999/xlink" width="770.66666" height="517" viewBox="0,0,770.66666,517"><g transform="translate(178.33332,78.33333)"><g data-paper-data="{&quot;isPaintingLayer&quot;:true}" fill-rule="nonzero" stroke="none" stroke-linecap="butt" stroke-linejoin="miter" stroke-miterlimit="10" stroke-dasharray="" stroke-dashoffset="0" style="mix-blend-mode: normal"><path d="M-116.66665,438.66667v-517h709v517z" fill="#006bff" stroke-width="0"/><path d="M-178.33331,100.83335c0,-1.38071 1.11929,-2.5 2.5,-2.5c1.38071,0 2.5,1.11929 2.5,2.5c0,1.38071 -1.11929,2.5 -2.5,2.5c-1.38071,0 -2.5,-1.11929 -2.5,-2.5z" fill="#ff0000" stroke-width="0.5"/><path d="M98.66669,-0.16665c0,2.5 -2.5,2.5 -2.5,2.5l-0.23223,-0.73223c-9.52407,9.52408 -20.13365,17.6829 -30.95883,25.71114c-6.86408,5.09059 -14.66302,8.70424 -17.43723,17.31167c0,0 -0.12272,0.36816 -0.41651,0.76602c5.47053,4.66616 10.77689,9.45632 16.12589,14.32028c3.92369,3.5679 7.35461,5.9362 9.92341,10.62913l1.76327,1.72622c0,0 1.76776,1.76777 0,3.53554c-1.76776,1.76776 -3.53553,0 -3.53553,0l-2.23673,-2.27378c-2.38832,-4.47723 -5.53809,-6.51854 -9.27778,-9.91741c-4.93773,-4.48772 -9.83442,-8.91251 -14.86111,-13.23405c-0.13556,0.98235 -0.26113,1.96483 -0.37349,2.94751c-0.56742,4.96283 -0.39503,10.07037 -0.98822,14.99486c-0.27061,2.24656 -1.01082,4.45235 -0.9949,6.7151v1c0,0 0,2.5 -2.5,2.5c-2.5,0 -2.5,-2.5 -2.5,-2.5v-1c0.0142,-2.48029 0.73806,-4.90611 1.03775,-7.36827c0.59569,-4.89408 0.41448,-9.98598 0.97914,-14.92177c0.23515,-2.05542 0.52912,-4.1102 0.85156,-6.165c-0.64751,-0.53856 -1.2979,-1.07528 -1.95154,-1.61007c0,0 -1.9349,-1.58309 -0.3518,-3.51798c1.22066,-1.49192 2.65048,-0.89228 3.24118,-0.53952c0.9076,-5.34358 1.81884,-10.69129 2.2,-16.05461c0.62756,-8.8305 -0.00629,-17.96247 -0.00629,-26.82277c0,0 0,-2.5 2.5,-2.5c2.5,0 2.5,2.5 2.5,2.5c0,8.97993 0.6298,18.22686 -0.00628,27.17722c-0.21122,2.97209 -0.58274,5.93878 -1.02591,8.90239c0.57549,-0.70421 1.18816,-1.35106 1.83638,-1.91651c1.35324,-1.18045 3.1037,-1.81198 4.59392,-2.81396c2.73244,-1.8372 5.28768,-3.92512 7.93249,-5.88639c10.62798,-7.88126 21.05257,-15.88144 30.40165,-25.23052l3.76776,-0.73223c0,0 2.5,0 2.5,2.5z" fill="#ff0000" stroke-width="0.5"/><path d="M122.16669,84.33335c-2.5,0 -2.5,-2.5 -2.5,-2.5c0,-7.99464 0,-16.64145 0,-25.1956c-0.14615,0.23304 -0.29641,0.4631 -0.45039,0.69c-0.95462,1.40673 -2.45789,2.36946 -3.48288,3.72577c-2.19803,2.90852 -5.92648,10.33553 -9.99235,11.21295c-10.08701,2.1768 -5.55682,-12.55633 -4.33885,-16.77998c0.98095,-3.4017 1.96434,-6.78952 3.01497,-10.1619c-0.08058,0.00577 -0.16405,0.00877 -0.2505,0.00877c-2.5,0 -2.5,-2.5 -2.5,-2.5v-1c0.06343,-1.31891 -0.38565,-2.76852 0.1903,-3.95671c2.14787,-4.431 4.25723,-3.3877 8.3097,-3.54329c1.9667,0 8.62598,-0.05903 9.31433,0.37337c0.45171,0.28375 0.85001,0.63611 1.19979,1.045c0.35583,-0.24971 0.83653,-0.41837 1.48588,-0.41837c2.5,0 2.5,2.5 2.5,2.5c0,14 0,28 0,42v2c0,0 0,2.5 -2.5,2.5zM106.4401,40.00357c0.49043,-0.51576 1.29327,-0.94989 2.51716,-0.54193c2.37171,0.79057 1.58114,3.16228 1.58114,3.16228c-1.0437,3.13006 -2.02478,6.28169 -2.94255,9.45097c-1.44692,4.99656 -3.29135,10.03103 -3.40105,15.29669c-0.02741,1.31543 1.85855,-1.86442 2.73967,-2.84153c1.80366,-2.00015 3.18588,-4.34365 4.81046,-6.4918c0.98519,-1.3027 2.41582,-2.23264 3.36437,-3.56225c2.33717,-3.27609 2.44141,-6.84828 2.55777,-10.68505c0.02518,-0.83024 0.40722,-4.27596 -0.81468,-4.83097c-2.03221,-0.92308 -4.45365,0.37338 -6.68568,0.37338c-1.01443,-0.06343 -2.03458,-0.31515 -3.04329,-0.19031c-0.45225,0.05597 -0.63421,0.41846 -0.6833,0.86053z" fill="#ff0000" stroke-width="0.5"/><path d="M147.66669,49.80022c0,-3.32229 0,-6.64458 0,-9.96687c0,0 0,-2.5 2.5,-2.5c2.5,0 2.5,2.5 2.5,2.5c0,5.33333 0,10.66667 0,16c0,0.54989 0.01345,8.19212 -0.04511,8.47277c-0.13225,0.63387 -0.31438,1.25931 -0.5147,1.88132c-0.20693,1.37014 -0.4971,2.69728 -0.90332,3.95257l-0.54883,4.93944c-0.12362,1.2652 -1.19037,2.2539 -2.48804,2.2539c-1.38071,0 -2.5,-1.11929 -2.5,-2.5v-3h0.02321l-0.02264,-0.05322c0.06607,-1.27644 -0.1034,-2.58727 0.19821,-3.82932c0.06264,-0.25794 0.14368,-0.51004 0.23708,-0.75822c0.20394,-2.15541 1.09617,-4.34491 1.28011,-6.51923c0.27695,-3.27358 0.16993,-6.56836 0.25698,-9.85249z" fill="#ff0000" stroke-width="0.5"/><path d="M155.66669,19.83335c0,-1.38071 1.11929,-2.5 2.5,-2.5c1.38071,0 2.5,1.11929 2.5,2.5c0,1.38071 -1.11929,2.5 -2.5,2.5c-1.38071,0 -2.5,-1.11929 -2.5,-2.5z" fill="#ff0000" stroke-width="0.5"/><path d="M198.16669,38.33335c2.5,0 2.5,2.5 2.5,2.5l-0.06688,2.42562c0.64202,1.24905 1.4555,2.42395 1.92606,3.74717c0.43884,1.23401 0.19052,2.68027 0.77625,3.85171c0.78313,1.56624 2.543,2.53456 3.22365,4.14798c0.49624,1.17632 0.12787,2.55089 0.14093,3.82752c0.05562,5.43876 -1.00536,9.19758 -3.47809,14.08543c-2.34973,4.64469 -5.43964,9.57671 -9.50027,12.89816c-2.14947,1.7582 -4.94738,2.56343 -7.21069,4.17244c-1.40233,0.99693 -2.4556,2.45613 -3.92273,3.35499c-0.16934,0.10375 -9.57542,4.01941 -9.84334,4.09831c-0.16831,0.04956 -9.76471,1.78981 -10.09766,1.85034c0,0 -2.45968,0.44721 -2.90689,-2.01246c-0.44721,-2.45968 2.01246,-2.90689 2.01246,-2.90689c6.11379,-1.11159 12.79569,-1.92735 18.21258,-5.28614c1.37067,-0.8499 2.33533,-2.24204 3.65087,-3.17499c2.21527,-1.57102 4.94809,-2.35798 7.06214,-4.06279c3.44997,-2.78213 6.10531,-7.28081 8.08197,-11.18806c2.20263,-4.35393 2.87207,-7.07199 2.93966,-11.82835c0.01031,-0.72561 0.46241,-1.5219 0.14093,-2.17249c-0.70109,-1.41882 -2.31555,-2.2452 -3.0233,-3.66071c-0.66309,-1.32619 -0.4807,-2.94233 -0.9768,-4.33959c-0.52771,-1.48629 -1.38263,-2.83522 -2.07395,-4.25283l-0.06688,-3.57438c0,0 0,-2.5 2.5,-2.5z" fill="#ff0000" stroke-width="0.5"/><path d="M195.66669,15.83335c0,-1.38071 1.11929,-2.5 2.5,-2.5c1.38071,0 2.5,1.11929 2.5,2.5c0,1.38071 -1.11929,2.5 -2.5,2.5c-1.38071,0 -2.5,-1.11929 -2.5,-2.5z" fill="#ff0000" stroke-width="0.5"/><path d="M254.66669,43.83335c0,-2.5 2.5,-2.5 2.5,-2.5l1.79057,0.12829c1.41251,0.63665 3.31663,0.66397 4.23754,1.90993c0.88893,1.20269 0.31459,2.97452 0.47189,4.46178c-0.00427,4.54538 0.21394,10.73125 -1.29882,15.08508c-0.59299,1.70668 -1.90789,3.07082 -2.77819,4.65416c-3.04535,5.54038 -5.15313,11.85205 -11.57467,14.61243c-1.28158,0.55091 -2.7876,0.14804 -4.18255,0.14036c-3.67356,-0.02022 -7.52534,-0.73139 -10.72506,-2.53617c-1.69697,-0.95717 -3.5257,-1.8501 -4.81961,-3.3067c-2.45037,-2.75845 -2.993,-6.83905 -3.58881,-10.2487c-1.0725,-6.13768 -1.03229,-12.19731 -1.03229,-18.40045c0,0 0,-2.5 2.5,-2.5c2.5,0 2.5,2.5 2.5,2.5c0,5.94663 -0.01779,11.71271 0.96772,17.59955c0.32581,1.94615 0.84387,6.04053 2.41119,7.7513c0.93589,1.02156 2.28783,1.571 3.50089,2.24029c2.5012,1.38 5.50117,1.81006 8.35636,1.90139c0.80643,0.0258 1.68669,0.50191 2.41553,0.1558c4.9503,-2.35083 6.47761,-7.99885 8.89747,-12.33184c0.74443,-1.33297 1.925,-2.44115 2.43205,-3.88125c1.33281,-3.78542 1.02272,-9.49917 1.01878,-13.43523c0.1573,-0.51274 0.80504,-1.11791 0.4719,-1.53823c-0.36539,-0.46101 -1.17497,-0.06005 -1.76246,-0.09007l-0.20944,0.1283c0,0 -2.5,0 -2.5,-2.5z" fill="#ff0000" stroke-width="0.5"/><path d="M339.13174,69.50852c0.00657,0.00277 0.01315,0.00557 0.01975,0.0084c2.29787,0.9848 1.31306,3.28266 1.31306,3.28266l-2.97731,6.94705c-0.36946,0.9192 -1.26922,1.56816 -2.32056,1.56816c-1.38071,0 -2.5,-1.11929 -2.5,-2.5v-3c0.02192,-1.5232 -0.29048,-3.08848 0.06576,-4.5696c0.36176,-1.50405 1.61735,-2.68107 2.03636,-4.17018c1.03307,-3.67144 0.89939,-8.44403 0.89788,-12.26022c0,-0.00496 0,-0.00993 -0.00002,-0.0149c-0.70095,1.74777 -1.29647,3.20138 -1.41288,3.39113c-0.60239,0.98191 -1.62109,1.95093 -2.7838,2.856l-3.53553,3.53554c-0.45241,0.45241 -1.07742,0.73224 -1.76777,0.73224c-1.38071,0 -2.5,-1.11929 -2.5,-2.5v-3c0.00003,-2.77244 -0.01268,-5.54496 -0.04551,-8.3172c-0.01794,-1.51458 0.19447,-3.04861 -0.04771,-4.54381c-0.12473,-0.77006 -1.04249,-4.70742 -3.00632,-4.67128c-0.46792,0.00861 -0.31384,0.89953 -0.60171,1.26852c-1.67622,2.14854 -3.63752,4.08355 -5.14147,6.35601c-2.62581,3.96758 -4.54272,8.41378 -6.32645,12.81176c-0.76829,1.89431 -1.62536,5.72729 -2.37798,7.14314l-1.56291,4.68873c-0.31417,1.02156 -1.26534,1.76412 -2.38994,1.76412c-1.38071,0 -2.5,-1.11929 -2.5,-2.5c0,-6.33334 0,-15.66666 0,-22c0,0 0,-2.5 2.5,-2.5c2.5,0 2.5,2.5 2.5,2.5c0,2.3606 0,4.72121 0,7.08181c2.39859,-5.69302 5.16743,-11.15683 9.08444,-16.00311c0.6143,-0.76002 5.01247,-5.55094 6.01511,-5.54642c5.70148,0.02571 7.64578,4.02652 8.70759,8.6135c0.67861,2.93156 0.43705,7.11413 0.28208,10.69765c0.48404,-0.37234 1.01574,-0.70742 1.32369,-1.21965c1.55742,-2.59056 2.21428,-5.62454 3.34208,-8.42969l0.25878,-2.45605l0.73915,0.07788l0.91287,-2.17263c0.64156,0.42406 1.35426,0.77382 2.05824,1.13269l0.54375,-0.54374l2,2l-0.0977,0.0977c0.23444,0.21561 0.44964,0.45133 0.63963,0.71336c0.7751,1.06899 0.16225,2.63658 0.1903,3.95671c0.03541,1.66629 0.00063,3.33333 0,5c-0.00164,4.28919 0.03788,9.50834 -1.09218,13.64052c-0.10088,0.36888 -0.25844,0.71616 -0.44277,1.05321z" fill="#ff0000" stroke-width="0.5"/><path d="M382.16669,83.904c-2.5,0 -2.5,-2.5 -2.5,-2.5c0,-6.48293 0,-13.84145 0,-21.1295c-1.21762,2.38058 -3.20399,5.29511 -4.07702,6.86874c-2.12014,3.82156 -4.33463,8.60565 -8.01364,11.32564c-2.92787,2.16466 -9.45364,2.2398 -12.84278,1.39725c-1.57862,-0.39244 -3.51714,-0.62045 -4.48215,-1.92995c-1.28129,-1.73871 -1.21811,-4.15524 -1.57225,-6.28584c-0.46331,-2.78739 -0.21167,-5.85572 -0.07821,-8.79403c-1.93397,-0.34556 -1.93397,-2.45231 -1.93397,-2.45231l0.73224,-3.76777c2.05624,-2.04989 4.05109,-4.2005 5.67843,-6.60506c1.35534,-2.00267 3.13129,-6.3488 4.57974,-7.61993c2.39073,-2.09806 6.12327,-1.72944 9.21193,-2.48945c2.8585,0.01143 7.22668,-0.23464 9.63061,1.3672c1.55266,1.0346 2.54135,2.01541 3.16707,3.02334c0,-0.64375 0,-1.28015 0,-1.90832c0,0 0,-2.5 2.5,-2.5c2.5,0 2.5,2.5 2.5,2.5c0,12 0,24 0,36v3c0,0 0,2.5 -2.5,2.5zM352.6974,58.35474c0.96929,0.71998 0.96928,2.04926 0.96928,2.04926c0,3.56892 -0.22596,7.19348 -0.01216,10.75366c0.07076,1.17834 -0.15085,2.47013 0.38891,3.51997c0.24066,0.46808 1.03116,0.23538 1.55669,0.26423c2.48334,0.13634 7.1547,1.09731 9.15721,-0.60274c2.9502,-2.50462 4.65963,-6.36587 6.45851,-9.61863c0.36703,-0.66366 4.24611,-6.70496 4.51927,-7.89741c0.32896,-1.43601 -0.07866,-2.94591 -0.06844,-4.41907c0.01785,-2.57401 1.07174,-5.23613 -1.83293,-6.88498c-1.24965,-0.70938 -4.77654,-0.61762 -6.36939,-0.6328c-1.51401,0.38528 -3.01708,0.81647 -4.54205,1.15582c-0.73985,0.16464 -1.70196,-0.173 -2.24602,0.35472c-1.73208,1.68003 -2.06284,4.38507 -3.42026,6.38007c-1.35026,1.98448 -2.91048,3.82453 -4.55863,5.57792z" fill="#ff0000" stroke-width="0.5"/><path d="M413.16668,86.46055c-2.5,0 -2.5,-2.5 -2.5,-2.5c0,-5 0,-13 0,-18c0,-1.66666 -0.07158,-3.33487 0,-5c0.05304,-1.23371 0.88405,-2.56137 0.37338,-3.68567c-0.35863,-0.78955 -1.59322,-0.73364 -2.44775,-0.88121c-3.22271,-0.55652 -3.0578,0.20651 -5.95494,1.94083c-1.09226,0.65387 -2.68504,0.80655 -3.30097,1.92065c-0.64594,1.16836 0.13356,2.67441 0.02493,4.00502c-0.1478,1.81041 -0.29616,3.64399 -0.79204,5.39141c-0.57065,2.01088 -1.25354,3.46296 -2.08737,4.75525l-2.00752,4.51691c-0.37715,0.90256 -1.26837,1.53681 -2.30771,1.53681c-1.38071,0 -2.5,-1.11929 -2.5,-2.5c0,-5 0,-13 0,-18c0,0 0,-2.5 2.5,-2.5c1.5202,0 2.116,0.92441 2.34951,1.64899c0.08697,-0.46485 0.23348,-0.91058 0.47399,-1.32631c1.03404,-1.78745 3.25588,-2.54884 4.98345,-3.6801c4.06493,-2.66181 11.73891,-5.15724 15.31969,0.54308c1.12155,1.78542 0.30383,4.20703 0.37337,6.31433c0.21949,6.65108 0,13.34409 0,20v3c0,0 0,2.5 -2.5,2.5z" fill="#ff0000" stroke-width="0.5"/><path d="M112.93445,193.60111c-1.76777,1.76777 -3.53553,0 -3.53553,0l-1.73223,-2.76777c0,-2.14199 0.60652,-4.35272 0.06688,-6.42562c-0.20166,-0.77465 -0.6627,-1.45286 -1.1005,-2.13921c-0.72671,0.20318 -1.52207,0.30367 -2.15205,0.69146c-0.82969,0.51071 -1.20733,1.62409 -2.08379,2.04956c-1.48423,0.7205 -3.17318,0.91048 -4.78052,1.28263c-2.20331,0.51013 -8.33116,2.0127 -10.62966,0.74536c-4.69437,-2.58836 -3.47235,-7.8786 -2.51,-11.81716c1.25541,-5.13793 3.41404,-9.42388 5.36845,-14.31551c0,0 0.01978,-0.04945 0.06079,-0.13105c-1.08399,0.33641 -2.09319,0.91083 -2.97183,1.82729c-0.71873,0.74967 -1.1251,1.74599 -1.68764,2.61898l0.41987,0.61325c0,0 0,2.5 -2.5,2.5c-2.5,0 -2.5,-2.5 -2.5,-2.5l0.16806,-1.35556c-1.21325,1.65571 -3.37906,3.49926 -4.14836,4.14013c-3.55362,2.96035 -5.56701,5.70182 -8.88294,8.89437c-2.36546,2.27745 -5.04125,4.21734 -7.40501,6.49655c-6.05812,1.66459 -11.18498,2.74946 -17.50453,2.02168c-2.04977,-0.23605 -4.33149,-0.02445 -6.09109,-1.10199c-1.56141,-0.95618 -2.11908,-2.98812 -3.10612,-4.53021c-1.03171,-1.61185 -2.39787,-3.09387 -2.94725,-4.92709c-0.43269,-1.44386 -0.20736,-3.04823 0.11603,-4.52043c0.65149,-2.9659 3.62844,-9.8585 5.19492,-12.46413c2.04039,-3.39391 6.60308,-8.21267 9.61297,-10.65832c4.20173,-3.41405 11.74624,-5.12788 16.88699,-6.42037c0,0 2.42535,-0.60634 3.03169,1.81902c0.60634,2.42535 -1.81902,3.0317 -1.81902,3.0317c-2.83507,0.7044 -5.60842,1.6666 -8.32024,2.75279c-2.27667,0.91189 -4.91741,1.24641 -6.79277,2.82684c-4.25024,3.58184 -8.03164,8.53298 -10.16506,13.57553c-0.99074,2.34172 -3.89552,6.18908 -2.91102,8.78159c0.50426,1.3279 1.61907,2.33662 2.35274,3.55289c0.58334,0.96706 0.63026,2.40081 1.59389,2.98981c1.08679,0.66428 2.53667,0.24101 3.80841,0.31223c5.43553,0.30441 9.30727,-0.26629 14.59597,-1.39253c1.9806,-2.0755 4.3335,-3.76424 6.40368,-5.75041c1.8709,-1.79496 3.18357,-4.1255 5.09565,-5.87653c1.26783,-1.16105 2.70092,-2.12832 4.02141,-3.2291c0.16375,-0.13651 0.3154,-0.29187 0.46277,-0.45352c-1.95112,0.15573 -4.17651,-0.00583 -4.65999,-0.00621c-4.36393,-0.00344 -8.72783,-0.00874 -13.09177,-0.00874h-1c0,0 -2.5,0 -2.5,-2.5c0,-2.5 2.5,-2.5 2.5,-2.5h1c4.36747,0 8.73499,-0.00614 13.10245,0.00875c1.74789,0.00596 3.53843,-0.36078 5.24365,0.0231c0.2348,0.05286 0.47719,0.10093 0.72469,0.14654c0.28726,-0.11508 0.60084,-0.17839 0.92921,-0.17839c0.64747,0 1.23745,0.24614 1.68148,0.64995c1.45673,0.31917 2.80621,0.81648 3.58382,1.92906c0.60958,-0.98771 1.13952,-2.04244 1.96693,-2.84678c4.9864,-4.84737 11.1721,-3.69539 17.27684,-2.67985c1.57422,0.42404 3.28611,0.50124 4.72268,1.27212c0.90355,0.48486 1.58285,1.28471 2.26825,2.06865c0,-2.41533 0,-4.75691 0,-6.89315c0,0 0,-2.5 2.5,-2.5c2.5,0 2.5,2.5 2.5,2.5c0,4.6002 0,9.20041 0,13.80062c0.04212,1.13278 0.03723,2.65679 0,4.19938c0,0.66666 0,1.33334 0,2.00001v2c0,0 0,0.55636 -0.26247,1.14417c-0.06486,0.68664 -0.13622,1.16525 -0.20943,1.3176c-0.29286,0.60952 -1.06045,0.67297 -1.81532,0.77821c0.04717,0.39843 0.11836,0.79391 0.22034,1.18563c0.37556,1.44263 1.65067,2.5508 2,4c0.0815,0.33808 0.06688,6.48309 0.06688,7.57438l0.26777,-0.76777c0,0 1.76777,1.76777 0,3.53553zM105.66669,170.83334c0,0 0,-2.15443 2,-2.4633c0,-0.64338 0,-1.2926 0,-1.94513c-0.63237,-0.99692 -1.93555,-1.51642 -2.8033,-2.35934c-0.67412,-0.65482 -1.09975,-1.61345 -1.92844,-2.05673c-0.98676,-0.52783 -2.18488,-0.48525 -3.27732,-0.72788c-1.65177,-0.27587 -3.50595,-0.68995 -5.35138,-0.84841c0.69697,1.04096 0.18165,2.32926 0.18165,2.32926c-1.22862,3.06816 -2.9104,5.94822 -4.04521,9.0523c-0.66069,1.80719 -2.34037,7.00364 -1.88325,9.29476c0.11165,0.55959 0.25139,1.32323 0.78691,1.52027c2.2769,0.83777 4.80211,-0.71575 7.17615,-1.21579c1.14046,-0.24021 2.37452,-0.2285 3.41367,-0.75621c0.81264,-0.41268 1.12805,-1.49275 1.91621,-1.95044c0.75696,-0.43958 1.93579,-0.01409 2.54656,-0.64114c0.73548,-0.7551 0.25008,-2.25923 1,-3c0.07707,-0.07613 0.16675,-0.13294 0.26581,-0.17515c-0.00308,-2.09804 0.00195,-4.00352 0.00195,-4.05709z" fill="#ff0000" stroke-width="0.5"/><path d="M154.16669,197.33334c-2.5,0 -2.5,-2.5 -2.5,-2.5v-2c0,-6.68816 -0.31948,-13.21119 -0.70302,-19.80849c-0.01383,-0.23794 -0.07141,0.47545 -0.15897,0.69712c-0.40942,1.03649 -0.92547,2.02901 -1.32831,3.06807c-0.33309,0.85915 -0.66771,1.72416 -0.87747,2.62143c-0.47729,2.04176 -0.56971,6.25401 -1.14023,7.87601c-0.00283,0.00805 -0.00567,0.01609 -0.00851,0.02413l0.00449,0.00075l-0.81524,4.89143c-0.179,1.20503 -1.21791,2.12954 -2.47274,2.12954c-1.38071,0 -2.5,-1.11929 -2.5,-2.5v-3.99705c-0.00261,-0.94866 -0.13626,-1.90618 -0.00647,-2.8459c0.03372,-0.24418 0.15669,-0.5138 0.30661,-0.78783c-0.25121,0.08481 -0.52031,0.13079 -0.80014,0.13079c-1.38071,0 -2.5,-1.11929 -2.5,-2.5l0,-3.76855c-0.33483,-1.30737 -0.86724,-2.58189 -0.98127,-3.92599c-0.05183,-0.61089 0.88999,-1.2852 0.51076,-1.76693c-0.01458,-0.01852 -2.96303,-0.19054 -3.26172,0.22924c-0.46155,0.64867 -0.18151,1.61097 -0.52198,2.33061c-0.51399,1.0864 -1.45561,1.92851 -2,3c-1.72683,3.39881 -1.46605,7.55727 -3.29294,10.94877l-1.56291,4.68873c-0.31417,1.02156 -1.26534,1.76412 -2.38994,1.76412c-1.38071,0 -2.5,-1.11929 -2.5,-2.5c0,-7.33333 0,-18.66667 0,-26c0,0 0,-2.5 2.5,-2.5c2.5,0 2.5,2.5 2.5,2.5c0,3.5712 0,7.1424 0,10.7136c0.62458,-1.54157 1.33826,-3.05556 2.25421,-4.81198c0.60972,-1.16919 0.48715,-2.79937 1.47802,-3.66939c2.77393,-2.43561 8.07014,-2.28292 10.73828,0.22924c1.03477,0.97428 0.25424,2.83515 0.51076,4.23307c0.23465,1.27873 0.62191,2.52442 0.94524,3.78395c0.09826,-0.01857 0.19747,0.01833 0.29795,0.12878c0.01899,0.02087 0.03784,0.04173 0.05657,0.06258c0.64002,-2.96525 1.6981,-6.17946 3.58097,-7.55849c1.60937,-1.17872 4.14576,-2.35432 5.84103,-1.30288c1.94923,1.20896 1.71307,4.25876 2.43501,6.43589c1.81438,5.47154 0.86197,12.02327 0.86197,17.75563v2c0,0 0,2.5 -2.5,2.5z" fill="#ff0000" stroke-width="0.5"/><path d="M169.16669,204.33334c-2.5,0 -2.5,-2.5 -2.5,-2.5v-1c0,-0.47861 -0.00978,-8.15449 0.03228,-8.40046c0.04807,-0.28111 3.02878,-9.18843 3.09601,-9.39011c0,0 0.79057,-2.37171 3.16228,-1.58114c2.37171,0.79057 1.58114,3.16228 1.58114,3.16228c-0.95779,2.87338 -2.38808,5.62534 -2.90399,8.60989c-0.43149,2.49619 0.03228,5.06634 0.03228,7.59954v1c0,0 0,2.5 -2.5,2.5z" fill="#ff0000" stroke-width="0.5"/><path d="M174.16669,154.33334c-2.5,0 -2.5,-2.5 -2.5,-2.5c0,-4 0,-9 0,-13c0,0 0,-0.82823 0.47671,-1.53126c-0.29985,-0.41235 -0.47671,-0.91989 -0.47671,-1.46874c0,-1.38071 1.11929,-2.5 2.5,-2.5c1.38071,0 2.5,1.11929 2.5,2.5c0,0.54885 -0.17687,1.05639 -0.47671,1.46874c0.47671,0.70303 0.47671,1.53126 0.47671,1.53126c0,4 0,8 0,12v1c0,0 0,2.5 -2.5,2.5z" fill="#ff0000" stroke-width="0.5"/><path d="M213.16669,210.33334c-2.5,0 -2.5,-2.5 -2.5,-2.5v-3c0.00041,-3.3697 0.79946,-9.66559 -0.73134,-12.87255c-1.23168,-2.58033 -4.02518,-4.06422 -5.94986,-6.17863c-2.0599,-2.26296 -5.06255,-6.6264 -8.86209,-5.63912c-1.39347,0.36208 -1.33907,2.62524 -1.47883,4.05818c-0.46774,4.79548 0.15602,10.00105 -0.97787,14.7347l0,4.89742c0,1.38071 -1.11929,2.5 -2.5,2.5c-1.38071,0 -2.5,-1.11929 -2.5,-2.5c0,-0.33333 0,-4.66667 0,-5c0,-0.04102 0,-0.08204 0,-0.12305c-0.20901,-0.79937 -0.14189,-1.62206 0,-2.45104c0,-9.4753 0,-18.95061 0,-28.42591c0,0 0,-2.5 2.5,-2.5c2.5,0 2.5,2.5 2.5,2.5c0,2.63882 0,5.27765 0,7.91647c0.17415,-0.083 0.35515,-0.15852 0.54329,-0.22617c7.85455,-2.82415 13.42725,5.78173 17.8146,10.54448c1.12045,1.21632 2.66803,2.14204 3.37345,3.63777c1.9468,4.12789 1.26814,10.69971 1.26866,15.12745v3c0,0 0,2.5 -2.5,2.5z" fill="#ff0000" stroke-width="0.5"/><path d="M217.66669,229.83334c0,-2.5 2.5,-2.5 2.5,-2.5h1c3.45274,0 5.9139,-0.05919 9.30103,-0.9003c0.6852,-0.17015 1.57036,0.01937 2.06096,-0.48833c2.26503,-2.34398 2.96507,-9.05353 3.93105,-11.97897c0.5579,-1.68959 0.91027,-3.46322 1.68499,-5.06502c0.97988,-2.02602 2.14951,-3.71349 3.18117,-5.47072c-3.62833,0.79253 -10.7769,-2.54661 -12.65776,-4.32422c-1.8849,-1.78142 -2.4111,-4.69532 -4.26921,-6.50466c0,0 -1.76777,-1.76777 0,-3.53553c1.76777,-1.76777 3.53553,0 3.53553,0c0.75345,0.76866 1.67205,1.40463 2.26034,2.30599c0.8321,1.27492 0.85973,3.06346 1.94259,4.13362c0.98818,0.97659 2.57995,1.03329 3.85168,1.59268c1.31444,0.57817 2.97736,2.48532 4.03366,1.51256c0.94794,-0.87297 1.29171,-2.23286 2.01581,-3.29884c0.50781,-0.74757 1.42693,-1.27238 1.71088,-2.11678c0.07186,-0.53217 0.15724,-1.06207 0.25219,-1.59037c0.12667,-2.22398 -0.51849,-4.53113 -0.33493,-6.77109c0.06854,-0.83645 1.01844,-1.77935 0.52949,-2.46147c-0.45358,-0.63277 -1.55641,-0.05229 -2.33494,-0.05726c-1.2315,-0.00787 -2.46302,0.01573 -3.69454,0.01873c-1.33333,0.00325 -2.67289,0.12866 -4,0c-0.51572,-0.05 -1.15123,-0.94448 -1.46147,-0.52949c-0.52656,0.70435 -0.07545,1.75722 -0.11317,2.63583l-1.18929,2.51169c0,0 -1.11803,2.23607 -3.3541,1.11803c-2.23607,-1.11803 -1.11803,-3.3541 -1.11803,-3.3541l0.81071,-1.48831c0.62894,-1.78806 0.49,-4.08293 1.88683,-5.36417c1.12244,-1.02955 3.01835,-0.43522 4.53853,-0.52949c3.38469,-0.20989 11.52078,-0.99712 13.97051,1.96147c0.49083,0.59278 0.64777,1.32847 0.67076,2.1187c2.20956,0.52172 1.82471,2.83083 1.82471,2.83083c-0.5423,3.24888 -1.51498,6.42303 -1.93787,9.6896c-0.41521,3.20725 -0.64651,6.50758 -1.77512,9.53827c-1.62155,4.3544 -4.25406,7.58082 -5.70885,12.05143c-1.36026,4.18012 -2.12693,10.97689 -5.40614,14.19833c-1.00326,0.98559 -2.59616,1.09384 -3.93904,1.51167c-3.76098,1.17021 -6.8546,1.0997 -10.69897,1.0997h-1c0,0 -2.5,0 -2.5,-2.5z" fill="#ff0000" stroke-width="0.5"/><text transform="translate(216.16669,303.83334) scale(0.5,0.5)" font-size="40" xml:space="preserve" fill="#ff0000" fill-rule="nonzero" stroke="none" stroke-width="1" stroke-linecap="butt" stroke-linejoin="miter" stroke-miterlimit="10" stroke-dasharray="" stroke-dashoffset="0" font-family="Sans Serif" font-weight="normal" text-anchor="start" style="mix-blend-mode: normal"><tspan x="0" dy="0">UPDATE PSI</tspan></text></g></g></svg>