<svg version="1.1" xmlns="http://www.w3.org/2000/svg" xmlns:xlink="http://www.w3.org/1999/xlink" width="1742.25226" height="893.27079" viewBox="0,0,1742.25226,893.27079"><g transform="translate(132.38237,177.73525)"><g data-paper-data="{&quot;isPaintingLayer&quot;:true}" fill-rule="nonzero" stroke="none" stroke-width="0" stroke-linecap="butt" stroke-linejoin="miter" stroke-miterlimit="10" stroke-dasharray="" stroke-dashoffset="0" style="mix-blend-mode: normal"><path d="M-127.36735,715.53554v-805.16268h1737.23724v805.16268z" fill="#006d38"/><path d="M-74.8148,-2.54006v-111.11111h52.55256v111.11111z" fill="#00ca10"/><path d="M72.82785,80.53802v-111.11111h52.55256v111.11111z" fill="#00ca10"/><path d="M-26.27628,184.63712v-111.11111h52.55256v111.11111z" fill="#00ca10"/><path d="M213.72372,-11.56408v-111.11111h52.55256v111.11111z" fill="#00ca10"/><path d="M319.32432,137.58006v-111.11111h52.55256v111.11111z" fill="#00ca10"/><path d="M193.69369,184.63712v-111.11111h52.55256v111.11111z" fill="#00ca10"/><path d="M72.82784,329.27676v-111.11111h52.55256v111.11111z" fill="#00ca10"/><path d="M-132.38237,329.27676v-111.11111h52.55256v111.11111z" fill="#00ca10"/><path d="M-43.29828,413.85634v-111.11111h52.55256v111.11111z" fill="#00ca10"/><path d="M287.52754,297.23472v-111.11111h52.55256v111.11111z" fill="#00ca10"/><path d="M193.69369,414.84734v-111.11111h52.55256v111.11111z" fill="#00ca10"/><path d="M383.37838,415.55556v-111.11111h52.55256v111.11111z" fill="#00ca10"/><path d="M453.72372,258.3934v-111.11111h52.55256v111.11111z" fill="#00ca10"/><path d="M471.45646,53.18319v-111.11111h52.55256v111.11111z" fill="#00ca10"/><path d="M503.48348,415.55556v-111.11111h52.55256v111.11111z" fill="#00ca10"/><path d="M621.03153,-57.60012v-111.11111h52.55255v111.11111z" fill="#00ca10"/><path d="M768.67418,25.47796v-111.11111h52.55255v111.11111z" fill="#00ca10"/><path d="M669.57006,129.57706v-111.11111h52.55256v111.11111z" fill="#00ca10"/><path d="M909.57006,-66.62414v-111.11111h52.55256v111.11111z" fill="#00ca10"/><path d="M1015.17066,82.52001v-111.11111h52.55256v111.11111z" fill="#00ca10"/><path d="M889.54003,129.57706v-111.11111h52.55256v111.11111z" fill="#00ca10"/><path d="M768.67418,274.2167v-111.11111h52.55256v111.11111z" fill="#00ca10"/><path d="M563.46397,274.2167v-111.11111h52.55256v111.11111z" fill="#00ca10"/><path d="M652.54805,358.79628v-111.11111h52.55256v111.11111z" fill="#00ca10"/><path d="M983.37388,242.17466v-111.11111h52.55256v111.11111z" fill="#00ca10"/><path d="M889.54003,359.78728v-111.11111h52.55256v111.11111z" fill="#00ca10"/><path d="M1079.22471,360.4955v-111.11111h52.55256v111.11111z" fill="#00ca10"/><path d="M1149.57005,203.33334v-111.11111h52.55256v111.11111z" fill="#00ca10"/><path d="M1167.30279,-1.87687v-111.11111h52.55256v111.11111z" fill="#00ca10"/><path d="M1199.32982,360.4955v-111.11111h52.55256v111.11111z" fill="#00ca10"/><path d="M623.02853,-57.10462v-111.11111h52.55255v111.11111z" fill="#00ca10"/><path d="M770.67118,25.97346v-111.11111h52.55256v111.11111z" fill="#00ca10"/><path d="M671.56705,130.07256v-111.11111h52.55256v111.11111z" fill="#00ca10"/><path d="M911.56705,-66.12865v-111.11111h52.55256v111.11111z" fill="#00ca10"/><path d="M1017.16765,83.0155v-111.11111h52.55256v111.11111z" fill="#00ca10"/><path d="M891.53702,130.07256v-111.11111h52.55256v111.11111z" fill="#00ca10"/><path d="M770.67117,274.7122v-111.11111h52.55256v111.11111z" fill="#00ca10"/><path d="M565.46096,274.7122v-111.11111h52.55256v111.11111z" fill="#00ca10"/><path d="M654.54504,359.29178v-111.11111h52.55256v111.11111z" fill="#00ca10"/><path d="M985.37087,242.67016v-111.11111h52.55256v111.11111z" fill="#00ca10"/><path d="M891.53702,360.28277v-111.11111h52.55256v111.11111z" fill="#00ca10"/><path d="M1081.22171,360.99099v-111.11111h52.55256v111.11111z" fill="#00ca10"/><path d="M1151.56705,203.82883v-111.11111h52.55256v111.11111z" fill="#00ca10"/><path d="M1169.29979,-1.38138v-111.11111h52.55256v111.11111z" fill="#00ca10"/><path d="M1201.32681,360.99099v-111.11111h52.55256v111.11111z" fill="#00ca10"/></g></g></svg>